<svg width="270" height="323" viewBox="0 0 270 323" fill="none" xmlns="http://www.w3.org/2000/svg">
<path d="M66.5408 179.8L32.6704 291.216C31.5184 295.005 35.0197 298.566 38.8278 297.478L68.6993 288.943C70.688 288.375 72.8212 289.09 74.066 290.741L91.878 314.377C94.3766 317.692 99.5937 316.694 100.693 312.691L131.716 199.676C132.432 197.071 130.947 194.368 128.365 193.574L72.7951 176.475C70.1494 175.661 67.3459 177.152 66.5408 179.8Z" fill="#CCA57A"/>
<path d="M202.459 179.8L236.33 291.216C237.482 295.005 233.98 298.566 230.172 297.478L200.301 288.943C198.312 288.375 196.179 289.09 194.934 290.741L177.122 314.377C174.623 317.692 169.406 316.694 168.307 312.691L137.284 199.676C136.568 197.071 138.053 194.368 140.635 193.574L196.205 176.475C198.851 175.661 201.654 177.152 202.459 179.8Z" fill="#CCA57A"/>
<path d="M207.531 35.4444C215.68 34.3057 231.099 35.7436 241 49.3113C249.009 60.2861 247.691 67.9177 246.338 75.7551C245.411 81.129 244.466 86.5997 246.5 93.3113C248.72 100.636 253.403 104.709 257.968 108.68C263.687 113.654 269.222 118.468 269.5 129.311C269.784 140.385 264.101 145.009 258.13 149.868C253.587 153.565 248.877 157.398 246.5 164.311C244.075 171.365 246.315 177.156 248.464 182.711C251.19 189.757 253.769 196.424 246.5 204.811C239.174 213.265 232.8 214.096 225.858 215.001C220.482 215.702 214.765 216.447 208 220.811C201.357 225.097 198.847 230.209 196.337 235.321C192.99 242.138 189.643 248.954 176.5 253.811C164.471 258.257 161.742 256.001 157.655 252.623C139.609 237.704 129.321 237.995 111.855 252.434C107.768 255.812 105.039 258.068 93.0102 253.622C79.8674 248.765 76.5204 241.949 73.1735 235.133C70.6633 230.02 68.1531 224.908 61.5102 220.622C54.7455 216.258 49.0284 215.513 43.6523 214.812C36.7101 213.907 30.3366 213.076 23.0102 204.622C15.7414 196.235 18.3206 189.568 21.0461 182.522C23.1951 176.967 25.435 171.176 23.0102 164.122C20.6337 157.209 15.9232 153.376 11.3799 149.679C5.40875 144.82 -0.273737 140.197 0.010213 129.122C0.288246 118.279 5.82285 113.465 11.5418 108.492C16.1074 104.521 20.7905 100.447 23.0102 93.1225C25.044 86.4109 24.0996 80.9402 23.1719 75.5663C21.819 67.7289 20.5015 60.0974 28.5102 49.1225C38.4109 35.5549 53.8302 34.117 61.9792 35.2556C63.0998 35.4122 64.1879 34.7048 64.5817 33.6441C71.8752 14 79.958 11.1995 96.1672 3.81417C104.595 -0.025526 112.862 2.12128 120.532 7.13342C125.033 10.074 129.479 12.9797 137.5 12.3113C144.729 11.7088 148.813 8.52578 152.634 5.54744C158.327 1.10976 163.438 -2.87345 177.5 2.81126C194.829 9.81651 202.727 25.2896 205.032 33.8029C205.327 34.895 206.41 35.6009 207.531 35.4444Z" fill="#F4D88D"/>
<circle cx="135" cy="128" r="87.5" fill="#F4D88D" stroke="#CCA57A" stroke-width="13"/>
<path d="M131.114 81.8309L116.975 105.557C116.416 106.494 115.5 107.163 114.437 107.408L88.3258 113.426C85.4237 114.094 84.2442 117.587 86.1465 119.878L103.931 141.301C104.62 142.131 104.944 143.203 104.831 144.275L102.028 170.936C101.707 173.983 104.792 176.244 107.601 175.022L132.915 164.01C133.978 163.547 135.19 163.569 136.236 164.069L160.861 175.845C163.713 177.209 166.946 174.882 166.557 171.744L163.164 144.416C163.02 143.262 163.386 142.103 164.166 141.24L183.392 119.979C185.449 117.705 184.287 114.058 181.294 113.392L154.374 107.404C153.285 107.162 152.348 106.476 151.786 105.513L138.007 81.8648C136.472 79.2316 132.674 79.2129 131.114 81.8309Z" fill="#CCA57A"/>
</svg>
